<svg width="32" height="35" viewBox="0 0 32 35" fill="none" xmlns="http://www.w3.org/2000/svg">
<path d="M30.3167 34.1667C30.3167 27.7167 23.9 22.5 16 22.5C8.10002 22.5 1.68335 27.7167 1.68335 34.1667M16 17.5C18.2102 17.5 20.3298 16.622 21.8926 15.0592C23.4554 13.4964 24.3333 11.3768 24.3333 9.16667C24.3333 6.95653 23.4554 4.83691 21.8926 3.27411C20.3298 1.71131 18.2102 0.833334 16 0.833334C13.7899 0.833334 11.6703 1.71131 10.1075 3.27411C8.54466 4.83691 7.66668 6.95653 7.66668 9.16667C7.66668 11.3768 8.54466 13.4964 10.1075 15.0592C11.6703 16.622 13.7899 17.5 16 17.5V17.5Z" stroke="white" stroke-width="1.5" stroke-linecap="round" stroke-linejoin="round"/>
</svg>
